{
  "accessors": [
    {
      "bufferView": 2,
      "componentType": 5126,
      "count": 65532,
      "max": [
        0.864736795425415,
        3.12264347076416,
        1.7385966777801514
      ],
      "min": [
        -0.735080897808075,
        0.6550774574279785,
        0.0
      ],
      "type": "VEC3"
    },
    {
      "bufferView": 2,
      "byteOffset": 786384,
      "componentType": 5126,
      "count": 65532,
      "max": [
        0.99998939037323,
        0.9999995827674866,
        0.9999976754188538
      ],
      "min": [
        -0.9999695420265198,
        -0.9999681115150452,
        -1.0
      ],
      "type": "VEC3"
    },
    {
      "bufferView": 1,
      "componentType": 5126,
      "count": 65532,
      "max": [
        0.9996501803398132,
        0.9772948026657104
      ],
      "min": [
        0.000244140625,
        0.00025250448379665613
      ],
      "type": "VEC2"
    },
    {
      "bufferView": 1,
      "byteOffset": 524256,
      "componentType": 5126,
      "count": 65532,
      "max": [
        0.9996501803398132,
        0.9772948026657104
      ],
      "min": [
        0.000244140625,
        0.00025250448379665613
      ],
      "type": "VEC2"
    },
    {
      "bufferView": 0,
      "componentType": 5125,
      "count": 279330,
      "type": "SCALAR"
    },
    {
      "bufferView": 2,
      "byteOffset": 1572768,
      "componentType": 5126,
      "count": 65532,
      "max": [
        0.8653199672698975,
        3.441035032272339,
        1.7381434440612793
      ],
      "min": [
        -0.8620142936706543,
        -1.733717679977417,
        0.0
      ],
      "type": "VEC3"
    },
    {
      "bufferView": 2,
      "byteOffset": 2359152,
      "componentType": 5126,
      "count": 65532,
      "max": [
        0.9999971389770508,
        0.999999463558197,
        0.9999993443489075
      ],
      "min": [
        -1.0,
        -0.9999597668647766,
        -1.0
      ],
      "type": "VEC3"
    },
    {
      "bufferView": 1,
      "byteOffset": 1048512,
      "componentType": 5126,
      "count": 65532,
      "max": [
        0.9997052550315857,
        0.9938963651657104
      ],
      "min": [
        0.00024414061044808477,
        0.00024654401931911707
      ],
      "type": "VEC2"
    },
    {
      "bufferView": 1,
      "byteOffset": 1572768,
      "componentType": 5126,
      "count": 65532,
      "max": [
        0.9997052550315857,
        0.9938963651657104
      ],
      "min": [
        0.00024414061044808477,
        0.00024654401931911707
      ],
      "type": "VEC2"
    },
    {
      "bufferView": 0,
      "byteOffset": 1117320,
      "componentType": 5125,
      "count": 295512,
      "type": "SCALAR"
    },
    {
      "bufferView": 2,
      "byteOffset": 3145536,
      "componentType": 5126,
      "count": 65532,
      "max": [
        0.30430370569229126,
        3.432711362838745,
        1.7501721382141113
      ],
      "min": [
        -0.8620132207870483,
        1.336397409439087,
        0.06257820129394531
      ],
      "type": "VEC3"
    },
    {
      "bufferView": 2,
      "byteOffset": 3931920,
      "componentType": 5126,
      "count": 65532,
      "max": [
        0.9999937415122986,
        0.9999973177909851,
        0.9999977946281433
      ],
      "min": [
        -0.9999985098838806,
        -0.9999381899833679,
        -0.9995174407958984
      ],
      "type": "VEC3"
    },
    {
      "bufferView": 1,
      "byteOffset": 2097024,
      "componentType": 5126,
      "count": 65532,
      "max": [
        0.9997203946113586,
        0.9763182401657104
      ],
      "min": [
        0.000244140625,
        0.0002450539031997323
      ],
      "type": "VEC2"
    },
    {
      "bufferView": 1,
      "byteOffset": 2621280,
      "componentType": 5126,
      "count": 65532,
      "max": [
        0.9997203946113586,
        0.9763182401657104
      ],
      "min": [
        0.000244140625,
        0.0002450539031997323
      ],
      "type": "VEC2"
    },
    {
      "bufferView": 0,
      "byteOffset": 2299368,
      "componentType": 5125,
      "count": 284355,
      "type": "SCALAR"
    },
    {
      "bufferView": 2,
      "byteOffset": 4718304,
      "componentType": 5126,
      "count": 65532,
      "max": [
        0.8646941184997559,
        3.446331262588501,
        1.718980073928833
      ],
      "min": [
        -0.8657241463661194,
        -1.3654625415802002,
        0.0
      ],
      "type": "VEC3"
    },
    {
      "bufferView": 2,
      "byteOffset": 5504688,
      "componentType": 5126,
      "count": 65532,
      "max": [
        0.9999970197677612,
        0.9999631643295288,
        0.9999992251396179
      ],
      "min": [
        -1.0,
        -0.9999553561210632,
        -0.9999314546585083
      ],
      "type": "VEC3"
    },
    {
      "bufferView": 1,
      "byteOffset": 3145536,
      "componentType": 5126,
      "count": 65532,
      "max": [
        0.9997472763061523,
        0.9808032512664795
      ],
      "min": [
        0.000244140625,
        0.00025810732040554285
      ],
      "type": "VEC2"
    },
    {
      "bufferView": 1,
      "byteOffset": 3669792,
      "componentType": 5126,
      "count": 65532,
      "max": [
        0.9997472763061523,
        0.9808032512664795
      ],
      "min": [
        0.000244140625,
        0.00025810732040554285
      ],
      "type": "VEC2"
    },
    {
      "bufferView": 0,
      "byteOffset": 3436788,
      "componentType": 5125,
      "count": 290979,
      "type": "SCALAR"
    },
    {
      "bufferView": 2,
      "byteOffset": 6291072,
      "componentType": 5126,
      "count": 65532,
      "max": [
        0.8632099032402039,
        1.8992170095443726,
        1.7544825077056885
      ],
      "min": [
        -0.8656294345855713,
        -3.4333856105804443,
        0.0
      ],
      "type": "VEC3"
    },
    {
      "bufferView": 2,
      "byteOffset": 7077456,
      "componentType": 5126,
      "count": 65532,
      "max": [
        1.0,
        0.9999847412109375,
        0.9999998211860657
      ],
      "min": [
        -1.0,
        -0.9999944567680359,
        -1.0
      ],
      "type": "VEC3"
    },
    {
      "bufferView": 1,
      "byteOffset": 4194048,
      "componentType": 5126,
      "count": 65532,
      "max": [
        0.9996474385261536,
        0.9802244901657104
      ],
      "min": [
        0.000244140625,
        0.0002476765075698495
      ],
      "type": "VEC2"
    },
    {
      "bufferView": 1,
      "byteOffset": 4718304,
      "componentType": 5126,
      "count": 65532,
      "max": [
        0.9996474385261536,
        0.9802244901657104
      ],
      "min": [
        0.000244140625,
        0.0002476765075698495
      ],
      "type": "VEC2"
    },
    {
      "bufferView": 0,
      "byteOffset": 4600704,
      "componentType": 5125,
      "count": 274554,
      "type": "SCALAR"
    },
    {
      "bufferView": 2,
      "byteOffset": 7863840,
      "componentType": 5126,
      "count": 65532,
      "max": [
        0.7340303063392639,
        1.8882240056991577,
        1.7385966777801514
      ],
      "min": [
        -0.717756986618042,
        -3.11279034614563,
        0.6164360046386719
      ],
      "type": "VEC3"
    },
    {
      "bufferView": 2,
      "byteOffset": 8650224,
      "componentType": 5126,
      "count": 65532,
      "max": [
        0.9999969005584717,
        0.9999935626983643,
        0.9999961256980896
      ],
      "min": [
        -0.999930739402771,
        -0.9999644160270691,
        -0.9992740750312805
      ],
      "type": "VEC3"
    },
    {
      "bufferView": 1,
      "byteOffset": 5242560,
      "componentType": 5126,
      "count": 65532,
      "max": [
        0.9993928670883179,
        0.9688222408294678
      ],
      "min": [
        0.000244140625,
        0.00026454462204128504
      ],
      "type": "VEC2"
    },
    {
      "bufferView": 1,
      "byteOffset": 5766816,
      "componentType": 5126,
      "count": 65532,
      "max": [
        0.9993928670883179,
        0.9688222408294678
      ],
      "min": [
        0.000244140625,
        0.00026454462204128504
      ],
      "type": "VEC2"
    },
    {
      "bufferView": 0,
      "byteOffset": 5698920,
      "componentType": 5125,
      "count": 277437,
      "type": "SCALAR"
    },
    {
      "bufferView": 2,
      "byteOffset": 9436608,
      "componentType": 5126,
      "count": 65532,
      "max": [
        0.8668266534805298,
        -0.05447227507829666,
        1.7544825077056885
      ],
      "min": [
        -0.8762415647506714,
        -3.442451000213623,
        0.0
      ],
      "type": "VEC3"
    },
    {
      "bufferView": 2,
      "byteOffset": 10222992,
      "componentType": 5126,
      "count": 65532,
      "max": [
        0.999996542930603,
        0.9999922513961792,
        0.9999996423721313
      ],
      "min": [
        -1.0,
        -0.9999977946281433,
        -0.999121367931366
      ],
      "type": "VEC3"
    },
    {
      "bufferView": 1,
      "byteOffset": 6291072,
      "componentType": 5126,
      "count": 65532,
      "max": [
        0.9994657635688782,
        0.9772948026657104
      ],
      "min": [
        0.000244140625,
        0.000250954763032496
      ],
      "type": "VEC2"
    },
    {
      "bufferView": 1,
      "byteOffset": 6815328,
      "componentType": 5126,
      "count": 65532,
      "max": [
        0.9994657635688782,
        0.9772948026657104
      ],
      "min": [
        0.000244140625,
        0.000250954763032496
      ],
      "type": "VEC2"
    },
    {
      "bufferView": 0,
      "byteOffset": 6808668,
      "componentType": 5125,
      "count": 298005,
      "type": "SCALAR"
    },
    {
      "bufferView": 2,
      "byteOffset": 11009376,
      "componentType": 5126,
      "count": 65532,
      "max": [
        0.8584753274917603,
        -0.412904292345047,
        1.7385966777801514
      ],
      "min": [
        -0.8610156178474426,
        -2.325719118118286,
        0.3522031307220459
      ],
      "type": "VEC3"
    },
    {
      "bufferView": 2,
      "byteOffset": 11795760,
      "componentType": 5126,
      "count": 65532,
      "max": [
        0.9999979734420776,
        0.9999846816062927,
        0.999984622001648
      ],
      "min": [
        -0.9994496703147888,
        -0.9999613761901855,
        -0.998748779296875
      ],
      "type": "VEC3"
    },
    {
      "bufferView": 1,
      "byteOffset": 7339584,
      "componentType": 5126,
      "count": 65532,
      "max": [
        0.9996367692947388,
        0.9782713651657104
      ],
      "min": [
        0.000244140625,
        0.0002456499496474862
      ],
      "type": "VEC2"
    },
    {
      "bufferView": 1,
      "byteOffset": 7863840,
      "componentType": 5126,
      "count": 65532,
      "max": [
        0.9996367692947388,
        0.9782713651657104
      ],
      "min": [
        0.000244140625,
        0.0002456499496474862
      ],
      "type": "VEC2"
    },
    {
      "bufferView": 0,
      "byteOffset": 8000688,
      "componentType": 5125,
      "count": 277173,
      "type": "SCALAR"
    },
    {
      "bufferView": 2,
      "byteOffset": 12582144,
      "componentType": 5126,
      "count": 65532,
      "max": [
        0.8791908025741577,
        -0.3234862983226776,
        1.7446517944335938
      ],
      "min": [
        -0.8632222414016724,
        -3.442451000213623,
        0.0
      ],
      "type": "VEC3"
    },
    {
      "bufferView": 2,
      "byteOffset": 13368528,
      "componentType": 5126,
      "count": 65532,
      "max": [
        1.0,
        0.9999732375144958,
        0.9999992847442627
      ],
      "min": [
        -0.9999983310699463,
        -0.9999997615814209,
        -0.9987633228302002
      ],
      "type": "VEC3"
    },
    {
      "bufferView": 1,
      "byteOffset": 8388096,
      "componentType": 5126,
      "count": 65532,
      "max": [
        0.9996781945228577,
        0.9661238193511963
      ],
      "min": [
        0.000244140625,
        0.0002540542045608163
      ],
      "type": "VEC2"
    },
    {
      "bufferView": 1,
      "byteOffset": 8912352,
      "componentType": 5126,
      "count": 65532,
      "max": [
        0.9996781945228577,
        0.9661238193511963
      ],
      "min": [
        0.000244140625,
        0.0002540542045608163
      ],
      "type": "VEC2"
    },
    {
      "bufferView": 0,
      "byteOffset": 9109380,
      "componentType": 5125,
      "count": 268782,
      "type": "SCALAR"
    },
    {
      "bufferView": 2,
      "byteOffset": 14154912,
      "componentType": 5126,
      "count": 65533,
      "max": [
        0.823703944683075,
        1.9022536277770996,
        1.7437769174575806
      ],
      "min": [
        -0.8759620189666748,
        -3.193390369415283,
        0.4117262363433838
      ],
      "type": "VEC3"
    },
    {
      "bufferView": 2,
      "byteOffset": 14941308,
      "componentType": 5126,
      "count": 65533,
      "max": [
        0.9999816417694092,
        0.9999827742576599,
        0.9999963641166687
      ],
      "min": [
        -1.0,
        -0.9999988079071045,
        -0.999121367931366
      ],
      "type": "VEC3"
    },
    {
      "bufferView": 1,
      "byteOffset": 9436608,
      "componentType": 5126,
      "count": 65533,
      "max": [
        0.9997549653053284,
        0.9714354276657104
      ],
      "min": [
        0.000244140625,
        0.0002451135078445077
      ],
      "type": "VEC2"
    },
    {
      "bufferView": 1,
      "byteOffset": 9960872,
      "componentType": 5126,
      "count": 65533,
      "max": [
        0.9997549653053284,
        0.9714354276657104
      ],
      "min": [
        0.000244140625,
        0.0002451135078445077
      ],
      "type": "VEC2"
    },
    {
      "bufferView": 0,
      "byteOffset": 10184508,
      "componentType": 5125,
      "count": 253167,
      "type": "SCALAR"
    },
    {
      "bufferView": 2,
      "byteOffset": 15727704,
      "componentType": 5126,
      "count": 48682,
      "max": [
        0.5547730326652527,
        1.7242294549942017,
        1.753375768661499
      ],
      "min": [
        -0.8759620189666748,
        -0.4377792179584503,
        0.6019468307495117
      ],
      "type": "VEC3"
    },
    {
      "bufferView": 2,
      "byteOffset": 16311888,
      "componentType": 5126,
      "count": 48682,
      "max": [
        0.9999861717224121,
        0.9999935626983643,
        0.9999666810035706
      ],
      "min": [
        -0.9990253448486328,
        -0.9997506141662598,
        -0.9999314546585083
      ],
      "type": "VEC3"
    },
    {
      "bufferView": 1,
      "byteOffset": 10485136,
      "componentType": 5126,
      "count": 48682,
      "max": [
        0.9996246695518494,
        0.9743651151657104
      ],
      "min": [
        0.000244140625,
        0.00024803413543850183
      ],
      "type": "VEC2"
    },
    {
      "bufferView": 1,
      "byteOffset": 10874592,
      "componentType": 5126,
      "count": 48682,
      "max": [
        0.9996246695518494,
        0.9743651151657104
      ],
      "min": [
        0.000244140625,
        0.00024803413543850183
      ],
      "type": "VEC2"
    },
    {
      "bufferView": 0,
      "byteOffset": 11197176,
      "componentType": 5125,
      "count": 200742,
      "type": "SCALAR"
    }
  ],
  "asset": {
    "extras": {
      "author": "PuerNoctis (https://sketchfab.com/PuerNoctis)",
      "license": "CC-BY-4.0 (http://creativecommons.org/licenses/by/4.0/)",
      "source": "https://sketchfab.com/3d-models/vegetable-stand-b2ba795978f041c790f08d685f95ac07",
      "title": "Vegetable Stand"
    },
    "generator": "Sketchfab-16.0.0",
    "version": "2.0"
  },
  "bufferViews": [
    {
      "buffer": 0,
      "byteLength": 12000144,
      "name": "floatBufferViews",
      "target": 34963
    },
    {
      "buffer": 0,
      "byteLength": 11264048,
      "byteOffset": 12000144,
      "byteStride": 8,
      "name": "floatBufferViews",
      "target": 34962
    },
    {
      "buffer": 0,
      "byteLength": 16896072,
      "byteOffset": 23264192,
      "byteStride": 12,
      "name": "floatBufferViews",
      "target": 34962
    }
  ],
  "buffers": [
    {
      "byteLength": 40160264,
      "uri": "scene.bin"
    }
  ],
  "extensionsUsed": [
    "KHR_materials_unlit"
  ],
  "images": [
    {
      "uri": "textures/tex_u1_v1_baseColor.jpeg"
    }
  ],
  "materials": [
    {
      "doubleSided": true,
      "extensions": {
        "KHR_materials_unlit": {}
      },
      "name": "tex_u1_v1",
      "pbrMetallicRoughness": {
        "baseColorTexture": {
          "index": 0
        },
        "metallicFactor": 0.0
      }
    }
  ],
  "meshes": [
    {
      "name": "model_tex_u1_v1_0",
      "primitives": [
        {
          "attributes": {
            "NORMAL": 1,
            "POSITION": 0,
            "TEXCOORD_0": 2,
            "TEXCOORD_1": 3
          },
          "indices": 4,
          "material": 0,
          "mode": 4
        }
      ]
    },
    {
      "name": "model_tex_u1_v1_0",
      "primitives": [
        {
          "attributes": {
            "NORMAL": 6,
            "POSITION": 5,
            "TEXCOORD_0": 7,
            "TEXCOORD_1": 8
          },
          "indices": 9,
          "material": 0,
          "mode": 4
        }
      ]
    },
    {
      "name": "model_tex_u1_v1_0",
      "primitives": [
        {
          "attributes": {
            "NORMAL": 11,
            "POSITION": 10,
            "TEXCOORD_0": 12,
            "TEXCOORD_1": 13
          },
          "indices": 14,
          "material": 0,
          "mode": 4
        }
      ]
    },
    {
      "name": "model_tex_u1_v1_0",
      "primitives": [
        {
          "attributes": {
            "NORMAL": 16,
            "POSITION": 15,
            "TEXCOORD_0": 17,
            "TEXCOORD_1": 18
          },
          "indices": 19,
          "material": 0,
          "mode": 4
        }
      ]
    },
    {
      "name": "model_tex_u1_v1_0",
      "primitives": [
        {
          "attributes": {
            "NORMAL": 21,
            "POSITION": 20,
            "TEXCOORD_0": 22,
            "TEXCOORD_1": 23
          },
          "indices": 24,
          "material": 0,
          "mode": 4
        }
      ]
    },
    {
      "name": "model_tex_u1_v1_0",
      "primitives": [
        {
          "attributes": {
            "NORMAL": 26,
            "POSITION": 25,
            "TEXCOORD_0": 27,
            "TEXCOORD_1": 28
          },
          "indices": 29,
          "material": 0,
          "mode": 4
        }
      ]
    },
    {
      "name": "model_tex_u1_v1_0",
      "primitives": [
        {
          "attributes": {
            "NORMAL": 31,
            "POSITION": 30,
            "TEXCOORD_0": 32,
            "TEXCOORD_1": 33
          },
          "indices": 34,
          "material": 0,
          "mode": 4
        }
      ]
    },
    {
      "name": "model_tex_u1_v1_0",
      "primitives": [
        {
          "attributes": {
            "NORMAL": 36,
            "POSITION": 35,
            "TEXCOORD_0": 37,
            "TEXCOORD_1": 38
          },
          "indices": 39,
          "material": 0,
          "mode": 4
        }
      ]
    },
    {
      "name": "model_tex_u1_v1_0",
      "primitives": [
        {
          "attributes": {
            "NORMAL": 41,
            "POSITION": 40,
            "TEXCOORD_0": 42,
            "TEXCOORD_1": 43
          },
          "indices": 44,
          "material": 0,
          "mode": 4
        }
      ]
    },
    {
      "name": "model_tex_u1_v1_0",
      "primitives": [
        {
          "attributes": {
            "NORMAL": 46,
            "POSITION": 45,
            "TEXCOORD_0": 47,
            "TEXCOORD_1": 48
          },
          "indices": 49,
          "material": 0,
          "mode": 4
        }
      ]
    },
    {
      "name": "model_tex_u1_v1_0",
      "primitives": [
        {
          "attributes": {
            "NORMAL": 51,
            "POSITION": 50,
            "TEXCOORD_0": 52,
            "TEXCOORD_1": 53
          },
          "indices": 54,
          "material": 0,
          "mode": 4
        }
      ]
    }
  ],
  "nodes": [
    {
      "children": [
        1
      ],
      "matrix": [
        1.0,
        0.0,
        0.0,
        0.0,
        0.0,
        2.220446049250313e-16,
        -1.0,
        0.0,
        0.0,
        1.0,
        2.220446049250313e-16,
        0.0,
        0.0,
        0.0,
        0.0,
        1.0
      ],
      "name": "Sketchfab_model"
    },
    {
      "children": [
        2
      ],
      "matrix": [
        1.0,
        0.0,
        0.0,
        0.0,
        0.0,
        0.0,
        1.0,
        0.0,
        0.0,
        -1.0,
        0.0,
        0.0,
        0.0,
        0.0,
        0.0,
        1.0
      ],
      "name": "model.fbx"
    },
    {
      "children": [
        3
      ],
      "name": "RootNode"
    },
    {
      "children": [
        4,
        5,
        6,
        7,
        8,
        9,
        10,
        11,
        12,
        13,
        14
      ],
      "matrix": [
        1.0,
        0.0,
        0.0,
        0.0,
        0.0,
        2.220446049250313e-16,
        -1.0,
        0.0,
        0.0,
        1.0,
        2.220446049250313e-16,
        0.0,
        0.0,
        0.0,
        0.0,
        1.0
      ],
      "name": "model"
    },
    {
      "mesh": 0,
      "name": "model_tex_u1_v1_0"
    },
    {
      "mesh": 1,
      "name": "model_tex_u1_v1_0"
    },
    {
      "mesh": 2,
      "name": "model_tex_u1_v1_0"
    },
    {
      "mesh": 3,
      "name": "model_tex_u1_v1_0"
    },
    {
      "mesh": 4,
      "name": "model_tex_u1_v1_0"
    },
    {
      "mesh": 5,
      "name": "model_tex_u1_v1_0"
    },
    {
      "mesh": 6,
      "name": "model_tex_u1_v1_0"
    },
    {
      "mesh": 7,
      "name": "model_tex_u1_v1_0"
    },
    {
      "mesh": 8,
      "name": "model_tex_u1_v1_0"
    },
    {
      "mesh": 9,
      "name": "model_tex_u1_v1_0"
    },
    {
      "mesh": 10,
      "name": "model_tex_u1_v1_0"
    }
  ],
  "samplers": [
    {
      "magFilter": 9729,
      "minFilter": 9987,
      "wrapS": 10497,
      "wrapT": 10497
    }
  ],
  "scene": 0,
  "scenes": [
    {
      "name": "Sketchfab_Scene",
      "nodes": [
        0
      ]
    }
  ],
  "textures": [
    {
      "sampler": 0,
      "source": 0
    }
  ]
}
